Patient4_TMGait_0pt4_03_right_26_EMG.mot
version=1
nRows=16
nColumns=33
inDegrees=no
endheader
time	1LAddLong	2LGlutMax	3LGlutMed	4LIliopsoas	5LSemiMemb	6LBicFemLong	7LRecFem	8LVastMed	9LVastLat	10LGasMed	11LTibAnt	12lTibPost	13LPeroneusLong	14LSol	15LExtDigLong	16LFlexDigLong	17RAddLong	18RGlutMax	19RGlutMed	20RIliopsoas	21RSemiMemb	22RBicFemLong	23RRecFem	24RVastMed	25RVastLat	26RGasMed	27RTibAnt	28RTibPost	29RPeroneusLong	30RSol	31RExtDigLong	32RFlexDigLong
34.037	-0.002747	-0.060272	-0.11154	0.010223	-0.006256	-0.060425	0.055847	0.000763	0.09491	0.061035	-0.00885	-0.001678	-0.42801	0.4599	0.002594	-0.020752	-0.066071	-0.74249	-1.1021	0.08728	-0.11536	-0.23315	0.2446	0.15747	0.095673	0.041199	0.065002	0.013275	-0.90347	-0.21652	0.000153	-0.019073
34.038	-0.007172	-0.039215	-0.12924	-0.008087	0.005035	-0.05249	0.13123	0.001831	0.10223	0.061951	0.007782	0.11017	-0.15732	0.95718	-0.035858	-0.015564	-0.05661	-0.81634	-0.88669	0.19669	-0.019989	-0.23117	0.29694	0.17487	0.016174	-0.042114	-0.13641	-0.014343	-1.203	-0.18112	-0.002899	-0.008545
34.039	0.000916	-0.079498	-0.14938	-0.007782	-0.002594	-0.04837	0.21683	0.003815	0.09491	0.13382	0.006409	0.99899	0.14191	0.78613	-0.075378	-0.005035	-0.041046	-0.85251	-0.73914	0.22461	-0.20172	-0.11566	0.45624	0.10178	-0.050049	-0.076141	-0.070648	-0.019226	-0.047455	-0.081024	0.00061	-0.00824
34.04	-0.011292	-0.08255	-0.18463	-0.006561	-0.016785	-0.06073	0.2095	0.002441	0.07843	0.093994	-0.010223	-0.30502	0.14236	-0.29053	-0.077057	-0.020905	-0.062866	-0.91812	-0.24048	0.13672	-0.1889	-0.081482	0.57388	0.07431	-0.10284	-0.022583	-0.1149	-0.026093	-0.10208	-0.039368	-0.003967	-0.00824
34.041	-0.006561	-0.06134	-0.20584	-0.002441	-0.009918	-0.049133	0.14832	0.006256	0.077362	0.083313	-0.009613	-0.21027	-0.16007	-0.29495	0.029297	0.16068	-0.052643	-0.97259	-0.11368	0.048523	-0.33173	-0.011444	0.69885	-0.038147	-0.15991	0.005188	-0.093994	-0.029602	-0.27786	-0.15717	-0.004272	-0.005951
34.042	-0.005188	-0.06012	-0.2153	0.008545	0.001373	-0.043488	0.25421	0.002899	0.083466	0.062714	-0.014191	0.007782	-0.17425	-0.007324	0.069733	-0.35339	-0.009918	-1.1002	0.98679	-0.20523	-0.07782	0.042267	0.57114	-0.20096	-0.18433	-0.004883	-0.15289	-0.041046	0.49164	0.12634	-0.002136	-0.009918
34.043	-0.008087	-0.025635	-0.18494	0.015717	-0.010376	-0.0383	0.2536	0.011292	0.095673	0.023956	-0.00824	-0.14664	0.007324	-0.15808	-0.018768	0.24521	-0.005188	-1.0081	1.711	-0.32562	0.29938	-0.074158	0.26642	-0.16235	-0.003815	0.030518	-0.036621	-0.046234	0.55252	0.25894	-0.001526	-0.006866
34.044	-0.002289	-0.039978	-0.15823	0.028381	-0.014191	-0.052338	0.22736	0.011292	0.10147	0.007477	-0.003357	-0.19043	0.075836	0.1918	-0.042572	0.13138	0.038757	-1.1107	-0.032959	-0.15717	0.28809	-0.24841	0.28015	-0.17731	0.27466	-0.032654	0.042419	-0.005951	0.2623	0.06424	-0.003204	-0.006714
34.045	-0.016479	-0.06073	-0.15396	-0.002289	-0.010834	-0.057373	0.22369	0.00473	0.11215	0.017548	-0.006409	-0.10315	0.087738	0.29068	-0.032959	0.002136	0.046692	-1.1452	-0.33279	0.031738	0.1416	-0.29129	0.28717	-0.068817	0.35675	-0.053711	0.081482	0.021973	-0.2356	0.040283	-0.005341	-0.00824
34.046	-0.004578	-0.054321	-0.11719	-0.018158	-0.010376	-0.055084	0.16876	0.014038	0.094452	-0.001221	-0.002136	-0.11704	0.016632	0.41596	-0.036316	-0.009918	0.037994	-1.1723	-0.24353	-0.016022	0.050201	-0.39749	0.17364	0.13596	0.27771	0.031891	0.11185	0.000305	-0.85068	-0.11108	-0.000153	-0.001526
34.047	-0.005493	-0.045624	-0.088806	-0.011444	-0.006714	-0.035248	0.12253	0.018311	0.10483	-0.022736	-0.010223	-0.076599	0.097198	-0.018463	-0.02533	-0.025177	0.015869	-1.1819	0.096283	-0.16571	-0.18601	-0.30197	-0.024109	0.20004	0.16541	0.023346	0.063629	0.003967	-0.33249	-0.15732	-0.000458	0.00061
34.048	-0.005798	-0.053558	-0.081177	0.007019	-0.016785	-0.047455	0.18677	0.007324	0.12314	-0.002747	-0.004578	-0.037689	0.001373	0.1001	0.001831	0.004425	-0.087891	-1.1696	-0.354	-0.16083	-0.24536	-0.049438	-0.049896	0.33325	0.11139	0.016479	0.043793	-0.020447	0.34668	-0.011139	-0.001068	-0.014038
34.049	-0.001373	-0.03952	-0.078583	0.018158	-0.011292	-0.029602	0.16113	0.005798	0.13931	0.031281	-0.000153	-0.001984	-0.046234	0.019836	-0.002441	0.008698	-0.12177	-1.2619	-0.53818	0.052795	-0.069885	-0.037994	0.091553	0.43976	-0.037231	0.001984	-0.022278	-0.02243	2.8189	0.16007	0	-0.00351
34.05	-0.005341	-0.056	-0.077362	-0.00473	-0.011597	-0.034943	0.092773	-0.001831	0.1329	0.013885	-0.009308	-0.02655	0.05722	0.23926	-0.018463	-0.016174	-0.054626	-1.2669	-0.63034	0.2124	0.071106	-0.15717	0.44373	0.25833	-0.327	0.041962	0.019379	-0.023499	2.1748	0.11444	-0.001221	0.002594
34.051	-0.016785	-0.050507	-0.061035	0.00885	-0.015869	-0.044861	0.043488	-0.001831	0.15411	0.002594	-0.009613	0.000153	0.068665	0.41214	-0.009766	-0.0177	-0.027161	-1.3208	-0.36957	0.21255	0.096436	-0.21759	0.41626	0.1152	-0.2684	0.038605	0.094757	-0.023193	-0.67963	0.041656	-0.005951	0.002136
34.052	-0.006256	-0.059662	-0.024414	-0.000916	-0.007324	-0.039825	-0.048523	0.007782	0.15335	0.010071	-0.012512	0.017853	0.049438	0.30746	-0.016632	-0.024567	0.010223	-1.3235	-0.75928	0.12451	0.096283	-0.31921	0.27725	-0.014801	-0.13367	0.039215	0.14145	-0.018768	-1.6449	0.10239	-0.001831	0.000305
